<?xml version="1.0" encoding="UTF-8" standalone="no"?>
<!DOCTYPE svg PUBLIC "-//W3C//DTD SVG 1.1//EN"
 "http://www.w3.org/Graphics/SVG/1.1/DTD/svg11.dtd">
<!-- Generated by graphviz version 5.0.0 (20220707.1540)
 -->
<!-- Pages: 1 -->
<svg width="203pt" height="479pt"
 viewBox="0.00 0.00 203.00 479.00" xmlns="http://www.w3.org/2000/svg" xmlns:xlink="http://www.w3.org/1999/xlink">
<g id="graph0" class="graph" transform="scale(1 1) rotate(0) translate(4 475)">
<polygon fill="white" stroke="transparent" points="-4,4 -4,-475 199,-475 199,4 -4,4"/>
<!-- A -->
<g id="node1" class="node">
<title>A</title>
<ellipse fill="none" stroke="black" cx="145" cy="-453" rx="27" ry="18"/>
<text text-anchor="middle" x="145" y="-449.3" font-family="Times,serif" font-size="14.00">A</text>
</g>
<!-- C -->
<g id="node2" class="node">
<title>C</title>
<ellipse fill="none" stroke="black" cx="145" cy="-366" rx="27" ry="18"/>
<text text-anchor="middle" x="145" y="-362.3" font-family="Times,serif" font-size="14.00">C</text>
</g>
<!-- A&#45;&#45;C -->
<g id="edge1" class="edge">
<title>A&#45;&#45;C</title>
<path fill="none" stroke="black" d="M145,-434.8C145,-420.05 145,-398.92 145,-384.18"/>
<text text-anchor="middle" x="148.5" y="-405.8" font-family="Times,serif" font-size="14.00">3</text>
</g>
<!-- F -->
<g id="node3" class="node">
<title>F</title>
<ellipse fill="none" stroke="black" cx="73" cy="-279" rx="27" ry="18"/>
<text text-anchor="middle" x="73" y="-275.3" font-family="Times,serif" font-size="14.00">F</text>
</g>
<!-- A&#45;&#45;F -->
<g id="edge2" class="edge">
<title>A&#45;&#45;F</title>
<path fill="none" stroke="black" d="M133.36,-436.53C123.8,-423.2 110.5,-403.15 102,-384 88.99,-354.71 80.42,-318.14 76.17,-297.09"/>
<text text-anchor="middle" x="105.5" y="-362.3" font-family="Times,serif" font-size="14.00">2</text>
</g>
<!-- C&#45;&#45;F -->
<g id="edge3" class="edge">
<title>C&#45;&#45;F</title>
<path fill="none" stroke="black" d="M132.13,-349.8C119.02,-334.33 98.83,-310.49 85.76,-295.06"/>
<text text-anchor="middle" x="116.5" y="-318.8" font-family="Times,serif" font-size="14.00">2</text>
</g>
<!-- D -->
<g id="node4" class="node">
<title>D</title>
<ellipse fill="none" stroke="black" cx="145" cy="-279" rx="27" ry="18"/>
<text text-anchor="middle" x="145" y="-275.3" font-family="Times,serif" font-size="14.00">D</text>
</g>
<!-- C&#45;&#45;D -->
<g id="edge4" class="edge">
<title>C&#45;&#45;D</title>
<path fill="none" stroke="black" d="M145,-347.8C145,-333.05 145,-311.92 145,-297.18"/>
<text text-anchor="middle" x="148.5" y="-318.8" font-family="Times,serif" font-size="14.00">4</text>
</g>
<!-- E -->
<g id="node5" class="node">
<title>E</title>
<ellipse fill="none" stroke="black" cx="168" cy="-192" rx="27" ry="18"/>
<text text-anchor="middle" x="168" y="-188.3" font-family="Times,serif" font-size="14.00">E</text>
</g>
<!-- C&#45;&#45;E -->
<g id="edge5" class="edge">
<title>C&#45;&#45;E</title>
<path fill="none" stroke="black" d="M156.1,-349.42C164.79,-336.18 176.2,-316.32 181,-297 188.5,-266.8 180.18,-230.54 173.83,-209.8"/>
<text text-anchor="middle" x="186.5" y="-275.3" font-family="Times,serif" font-size="14.00">1</text>
</g>
<!-- F&#45;&#45;E -->
<g id="edge6" class="edge">
<title>F&#45;&#45;E</title>
<path fill="none" stroke="black" d="M88.69,-263.96C106.29,-248.21 134.68,-222.81 152.29,-207.06"/>
<text text-anchor="middle" x="129.5" y="-231.8" font-family="Times,serif" font-size="14.00">3</text>
</g>
<!-- B -->
<g id="node6" class="node">
<title>B</title>
<ellipse fill="none" stroke="black" cx="82" cy="-105" rx="27" ry="18"/>
<text text-anchor="middle" x="82" y="-101.3" font-family="Times,serif" font-size="14.00">B</text>
</g>
<!-- F&#45;&#45;B -->
<g id="edge7" class="edge">
<title>F&#45;&#45;B</title>
<path fill="none" stroke="black" d="M73.9,-260.88C75.62,-227.91 79.39,-155.97 81.11,-123.05"/>
<text text-anchor="middle" x="81.5" y="-188.3" font-family="Times,serif" font-size="14.00">6</text>
</g>
<!-- G -->
<g id="node7" class="node">
<title>G</title>
<ellipse fill="none" stroke="black" cx="27" cy="-18" rx="27" ry="18"/>
<text text-anchor="middle" x="27" y="-14.3" font-family="Times,serif" font-size="14.00">G</text>
</g>
<!-- F&#45;&#45;G -->
<g id="edge8" class="edge">
<title>F&#45;&#45;G</title>
<path fill="none" stroke="black" d="M69.98,-261.01C61.65,-214.08 38.38,-83.06 30.03,-36.06"/>
<text text-anchor="middle" x="55.5" y="-144.8" font-family="Times,serif" font-size="14.00">5</text>
</g>
<!-- D&#45;&#45;B -->
<g id="edge9" class="edge">
<title>D&#45;&#45;B</title>
<path fill="none" stroke="black" d="M137.6,-261.36C135.1,-255.58 132.35,-249.04 130,-243 113.37,-200.25 96.13,-149.04 87.55,-123.01"/>
<text text-anchor="middle" x="120.5" y="-188.3" font-family="Times,serif" font-size="14.00">1</text>
</g>
<!-- E&#45;&#45;B -->
<g id="edge10" class="edge">
<title>E&#45;&#45;B</title>
<path fill="none" stroke="black" d="M157.76,-175.18C150.65,-164.84 140.59,-151.38 130,-141 121.31,-132.48 110.43,-124.38 101.23,-118.12"/>
<text text-anchor="middle" x="145.5" y="-144.8" font-family="Times,serif" font-size="14.00">2</text>
</g>
<!-- B&#45;&#45;G -->
<g id="edge11" class="edge">
<title>B&#45;&#45;G</title>
<path fill="none" stroke="black" d="M71.65,-88.01C61.82,-72.82 47.12,-50.09 37.3,-34.92"/>
<text text-anchor="middle" x="61.5" y="-57.8" font-family="Times,serif" font-size="14.00">2</text>
</g>
</g>
</svg>
