<?xml version="1.0" encoding="UTF-8" standalone="no"?>
<!DOCTYPE svg PUBLIC "-//W3C//DTD SVG 1.1//EN"
 "http://www.w3.org/Graphics/SVG/1.1/DTD/svg11.dtd">
<!-- Generated by graphviz version 5.0.0 (20220707.1540)
 -->
<!-- Pages: 1 -->
<svg width="169pt" height="305pt"
 viewBox="0.00 0.00 169.00 305.00" xmlns="http://www.w3.org/2000/svg" xmlns:xlink="http://www.w3.org/1999/xlink">
<g id="graph0" class="graph" transform="scale(1 1) rotate(0) translate(4 301)">
<polygon fill="white" stroke="transparent" points="-4,4 -4,-301 165,-301 165,4 -4,4"/>
<!-- A -->
<g id="node1" class="node">
<title>A</title>
<ellipse fill="none" stroke="black" cx="134" cy="-279" rx="27" ry="18"/>
<text text-anchor="middle" x="134" y="-275.3" font-family="Times,serif" font-size="14.00">A</text>
</g>
<!-- B -->
<g id="node2" class="node">
<title>B</title>
<ellipse fill="none" stroke="black" cx="27" cy="-192" rx="27" ry="18"/>
<text text-anchor="middle" x="27" y="-188.3" font-family="Times,serif" font-size="14.00">B</text>
</g>
<!-- A&#45;&#45;B -->
<g id="edge1" class="edge">
<title>A&#45;&#45;B</title>
<path fill="none" stroke="black" d="M112.78,-267.56C100.84,-261.23 85.98,-252.54 74,-243 60.95,-232.61 48.12,-218.63 39.17,-208.1"/>
<text text-anchor="middle" x="77.5" y="-231.8" font-family="Times,serif" font-size="14.00">3</text>
</g>
<!-- C -->
<g id="node3" class="node">
<title>C</title>
<ellipse fill="none" stroke="black" cx="79" cy="-105" rx="27" ry="18"/>
<text text-anchor="middle" x="79" y="-101.3" font-family="Times,serif" font-size="14.00">C</text>
</g>
<!-- A&#45;&#45;C -->
<g id="edge2" class="edge">
<title>A&#45;&#45;C</title>
<path fill="none" stroke="black" d="M127,-261.38C124.66,-255.6 122.11,-249.06 120,-243 105.12,-200.34 90.67,-149.09 83.57,-123.03"/>
<text text-anchor="middle" x="112.5" y="-188.3" font-family="Times,serif" font-size="14.00">1</text>
</g>
<!-- D -->
<g id="node4" class="node">
<title>D</title>
<ellipse fill="none" stroke="black" cx="79" cy="-18" rx="27" ry="18"/>
<text text-anchor="middle" x="79" y="-14.3" font-family="Times,serif" font-size="14.00">D</text>
</g>
<!-- A&#45;&#45;D -->
<g id="edge3" class="edge">
<title>A&#45;&#45;D</title>
<path fill="none" stroke="black" d="M134.48,-260.97C134.96,-227.07 133.72,-149.05 115,-87 109.25,-67.95 98,-48.04 89.6,-34.72"/>
<text text-anchor="middle" x="131.5" y="-144.8" font-family="Times,serif" font-size="14.00">5</text>
</g>
<!-- B&#45;&#45;C -->
<g id="edge5" class="edge">
<title>B&#45;&#45;C</title>
<path fill="none" stroke="black" d="M36.78,-175.01C46.08,-159.82 59.98,-137.09 69.26,-121.92"/>
<text text-anchor="middle" x="60.5" y="-144.8" font-family="Times,serif" font-size="14.00">2</text>
</g>
<!-- B&#45;&#45;D -->
<g id="edge4" class="edge">
<title>B&#45;&#45;D</title>
<path fill="none" stroke="black" d="M26.04,-173.93C25.41,-152.9 26.1,-116.37 36,-87 42.69,-67.15 56.3,-47.21 66.43,-34.11"/>
<text text-anchor="middle" x="39.5" y="-101.3" font-family="Times,serif" font-size="14.00">6</text>
</g>
<!-- C&#45;&#45;D -->
<g id="edge6" class="edge">
<title>C&#45;&#45;D</title>
<path fill="none" stroke="black" d="M79,-86.8C79,-72.05 79,-50.92 79,-36.18"/>
<text text-anchor="middle" x="82.5" y="-57.8" font-family="Times,serif" font-size="14.00">4</text>
</g>
</g>
</svg>
