<?xml version="1.0" encoding="UTF-8" standalone="no"?>
<!DOCTYPE svg PUBLIC "-//W3C//DTD SVG 1.1//EN"
 "http://www.w3.org/Graphics/SVG/1.1/DTD/svg11.dtd">
<!-- Generated by graphviz version 5.0.0 (20220707.1540)
 -->
<!-- Pages: 1 -->
<svg width="134pt" height="218pt"
 viewBox="0.00 0.00 134.00 218.00" xmlns="http://www.w3.org/2000/svg" xmlns:xlink="http://www.w3.org/1999/xlink">
<g id="graph0" class="graph" transform="scale(1 1) rotate(0) translate(4 214)">
<polygon fill="white" stroke="transparent" points="-4,4 -4,-214 130,-214 130,4 -4,4"/>
<!-- 1 -->
<g id="node1" class="node">
<title>1</title>
<ellipse fill="none" stroke="black" cx="62" cy="-192" rx="27" ry="18"/>
<text text-anchor="middle" x="62" y="-188.3" font-family="Times,serif" font-size="14.00">1</text>
</g>
<!-- 2 -->
<g id="node2" class="node">
<title>2</title>
<ellipse fill="none" stroke="black" cx="27" cy="-105" rx="27" ry="18"/>
<text text-anchor="middle" x="27" y="-101.3" font-family="Times,serif" font-size="14.00">2</text>
</g>
<!-- 1&#45;&#45;2 -->
<g id="edge1" class="edge">
<title>1&#45;&#45;2</title>
<path fill="none" stroke="black" d="M55.09,-174.21C48.91,-159.21 39.92,-137.37 33.78,-122.47"/>
<text text-anchor="middle" x="52" y="-144.8" font-family="Times,serif" font-size="14.00">A</text>
</g>
<!-- 4 -->
<g id="node3" class="node">
<title>4</title>
<ellipse fill="none" stroke="black" cx="99" cy="-105" rx="27" ry="18"/>
<text text-anchor="middle" x="99" y="-101.3" font-family="Times,serif" font-size="14.00">4</text>
</g>
<!-- 1&#45;&#45;4 -->
<g id="edge2" class="edge">
<title>1&#45;&#45;4</title>
<path fill="none" stroke="black" d="M69.13,-174.61C75.64,-159.66 85.22,-137.66 91.76,-122.63"/>
<text text-anchor="middle" x="87" y="-144.8" font-family="Times,serif" font-size="14.00">C</text>
</g>
<!-- 3 -->
<g id="node4" class="node">
<title>3</title>
<ellipse fill="none" stroke="black" cx="27" cy="-18" rx="27" ry="18"/>
<text text-anchor="middle" x="27" y="-14.3" font-family="Times,serif" font-size="14.00">3</text>
</g>
<!-- 2&#45;&#45;3 -->
<g id="edge3" class="edge">
<title>2&#45;&#45;3</title>
<path fill="none" stroke="black" d="M27,-86.8C27,-72.05 27,-50.92 27,-36.18"/>
<text text-anchor="middle" x="32" y="-57.8" font-family="Times,serif" font-size="14.00">B</text>
</g>
<!-- 5 -->
<g id="node5" class="node">
<title>5</title>
<ellipse fill="none" stroke="black" cx="99" cy="-18" rx="27" ry="18"/>
<text text-anchor="middle" x="99" y="-14.3" font-family="Times,serif" font-size="14.00">5</text>
</g>
<!-- 4&#45;&#45;5 -->
<g id="edge4" class="edge">
<title>4&#45;&#45;5</title>
<path fill="none" stroke="black" d="M99,-86.8C99,-72.05 99,-50.92 99,-36.18"/>
<text text-anchor="middle" x="104" y="-57.8" font-family="Times,serif" font-size="14.00">D</text>
</g>
</g>
</svg>
