<?xml version="1.0" encoding="UTF-8" standalone="no"?>
<!DOCTYPE svg PUBLIC "-//W3C//DTD SVG 1.1//EN"
 "http://www.w3.org/Graphics/SVG/1.1/DTD/svg11.dtd">
<!-- Generated by graphviz version 5.0.0 (20220707.1540)
 -->
<!-- Pages: 1 -->
<svg width="210pt" height="476pt"
 viewBox="0.00 0.00 210.00 476.00" xmlns="http://www.w3.org/2000/svg" xmlns:xlink="http://www.w3.org/1999/xlink">
<g id="graph0" class="graph" transform="scale(1 1) rotate(0) translate(4 472)">
<polygon fill="white" stroke="transparent" points="-4,4 -4,-472 206,-472 206,4 -4,4"/>
<!-- 1 -->
<g id="node1" class="node">
<title>1</title>
<ellipse fill="none" stroke="black" cx="147" cy="-450" rx="27" ry="18"/>
<text text-anchor="middle" x="147" y="-446.3" font-family="Times,serif" font-size="14.00">1</text>
</g>
<!-- 2 -->
<g id="node2" class="node">
<title>2</title>
<ellipse fill="none" stroke="black" cx="120" cy="-378" rx="27" ry="18"/>
<text text-anchor="middle" x="120" y="-374.3" font-family="Times,serif" font-size="14.00">2</text>
</g>
<!-- 1&#45;&gt;2 -->
<g id="edge1" class="edge">
<title>1&#45;&gt;2</title>
<path fill="none" stroke="black" d="M140.6,-432.41C137.49,-424.34 133.67,-414.43 130.17,-405.35"/>
<polygon fill="black" stroke="black" points="133.4,-404.03 126.54,-395.96 126.87,-406.55 133.4,-404.03"/>
</g>
<!-- 3 -->
<g id="node3" class="node">
<title>3</title>
<ellipse fill="none" stroke="black" cx="46" cy="-306" rx="27" ry="18"/>
<text text-anchor="middle" x="46" y="-302.3" font-family="Times,serif" font-size="14.00">3</text>
</g>
<!-- 2&#45;&gt;3 -->
<g id="edge2" class="edge">
<title>2&#45;&gt;3</title>
<path fill="none" stroke="black" d="M105.02,-362.83C94.49,-352.87 80.22,-339.37 68.34,-328.14"/>
<polygon fill="black" stroke="black" points="70.62,-325.47 60.95,-321.14 65.81,-330.56 70.62,-325.47"/>
</g>
<!-- 5 -->
<g id="node4" class="node">
<title>5</title>
<ellipse fill="none" stroke="black" cx="175" cy="-306" rx="27" ry="18"/>
<text text-anchor="middle" x="175" y="-302.3" font-family="Times,serif" font-size="14.00">5</text>
</g>
<!-- 2&#45;&gt;5 -->
<g id="edge3" class="edge">
<title>2&#45;&gt;5</title>
<path fill="none" stroke="black" d="M131.93,-361.81C139.21,-352.55 148.66,-340.52 156.85,-330.09"/>
<polygon fill="black" stroke="black" points="159.66,-332.18 163.09,-322.16 154.16,-327.86 159.66,-332.18"/>
</g>
<!-- 6 -->
<g id="node5" class="node">
<title>6</title>
<ellipse fill="none" stroke="black" cx="92" cy="-18" rx="27" ry="18"/>
<text text-anchor="middle" x="92" y="-14.3" font-family="Times,serif" font-size="14.00">6</text>
</g>
<!-- 2&#45;&gt;6 -->
<g id="edge4" class="edge">
<title>2&#45;&gt;6</title>
<path fill="none" stroke="black" d="M120,-359.95C120,-333.29 120,-280.11 120,-235 120,-235 120,-235 120,-161 120,-120.23 108.75,-74.09 100.51,-45.77"/>
<polygon fill="black" stroke="black" points="103.76,-44.41 97.53,-35.84 97.05,-46.42 103.76,-44.41"/>
</g>
<!-- 4 -->
<g id="node6" class="node">
<title>4</title>
<ellipse fill="none" stroke="black" cx="27" cy="-234" rx="27" ry="18"/>
<text text-anchor="middle" x="27" y="-230.3" font-family="Times,serif" font-size="14.00">4</text>
</g>
<!-- 3&#45;&gt;4 -->
<g id="edge5" class="edge">
<title>3&#45;&gt;4</title>
<path fill="none" stroke="black" d="M35.93,-289.12C32.84,-281.14 29.88,-271.26 27.77,-262.14"/>
<polygon fill="black" stroke="black" points="31.19,-261.4 25.78,-252.29 24.33,-262.79 31.19,-261.4"/>
</g>
<!-- 7 -->
<g id="node7" class="node">
<title>7</title>
<ellipse fill="none" stroke="black" cx="65" cy="-90" rx="27" ry="18"/>
<text text-anchor="middle" x="65" y="-86.3" font-family="Times,serif" font-size="14.00">7</text>
</g>
<!-- 3&#45;&gt;7 -->
<g id="edge6" class="edge">
<title>3&#45;&gt;7</title>
<path fill="none" stroke="black" d="M52.83,-288.13C56.63,-277.87 60.98,-264.4 63,-252 70.55,-205.6 69.05,-150.68 67.12,-118.46"/>
<polygon fill="black" stroke="black" points="70.59,-117.81 66.44,-108.06 63.6,-118.27 70.59,-117.81"/>
</g>
<!-- 5&#45;&gt;1 -->
<g id="edge7" class="edge">
<title>5&#45;&gt;1</title>
<path fill="none" stroke="black" d="M171.61,-324.19C166.81,-348.53 157.99,-393.28 152.31,-422.06"/>
<polygon fill="black" stroke="black" points="148.88,-421.38 150.38,-431.87 155.75,-422.74 148.88,-421.38"/>
</g>
<!-- 5&#45;&gt;6 -->
<g id="edge8" class="edge">
<title>5&#45;&gt;6</title>
<path fill="none" stroke="black" d="M174.82,-287.79C173.81,-248 167.83,-147.31 134,-72 128.99,-60.85 121.11,-50 113.52,-41.05"/>
<polygon fill="black" stroke="black" points="115.98,-38.56 106.72,-33.42 110.76,-43.21 115.98,-38.56"/>
</g>
<!-- 6&#45;&gt;7 -->
<g id="edge9" class="edge">
<title>6&#45;&gt;7</title>
<path fill="none" stroke="black" d="M91.2,-36.46C88.8,-44.89 85.03,-55.16 80.98,-64.37"/>
<polygon fill="black" stroke="black" points="77.79,-62.93 76.71,-73.46 84.13,-65.9 77.79,-62.93"/>
</g>
<!-- 4&#45;&gt;3 -->
<g id="edge10" class="edge">
<title>4&#45;&gt;3</title>
<path fill="none" stroke="black" d="M37.17,-251.14C40.19,-259.01 43.09,-268.68 45.18,-277.64"/>
<polygon fill="black" stroke="black" points="41.8,-278.59 47.22,-287.7 48.66,-277.2 41.8,-278.59"/>
</g>
<!-- 8 -->
<g id="node8" class="node">
<title>8</title>
<ellipse fill="none" stroke="black" cx="27" cy="-162" rx="27" ry="18"/>
<text text-anchor="middle" x="27" y="-158.3" font-family="Times,serif" font-size="14.00">8</text>
</g>
<!-- 4&#45;&gt;8 -->
<g id="edge11" class="edge">
<title>4&#45;&gt;8</title>
<path fill="none" stroke="black" d="M21.16,-216.41C20.3,-208.51 20.05,-198.85 20.41,-189.94"/>
<polygon fill="black" stroke="black" points="23.9,-190.18 21.12,-179.96 16.92,-189.68 23.9,-190.18"/>
</g>
<!-- 7&#45;&gt;6 -->
<g id="edge12" class="edge">
<title>7&#45;&gt;6</title>
<path fill="none" stroke="black" d="M65.76,-71.7C68.14,-63.28 71.9,-53.02 75.95,-43.79"/>
<polygon fill="black" stroke="black" points="79.15,-45.21 80.22,-34.67 72.81,-42.24 79.15,-45.21"/>
</g>
<!-- 8&#45;&gt;4 -->
<g id="edge13" class="edge">
<title>8&#45;&gt;4</title>
<path fill="none" stroke="black" d="M32.88,-179.96C33.71,-187.83 33.95,-197.37 33.58,-206.19"/>
<polygon fill="black" stroke="black" points="30.07,-206.18 32.84,-216.41 37.06,-206.69 30.07,-206.18"/>
</g>
<!-- 8&#45;&gt;7 -->
<g id="edge14" class="edge">
<title>8&#45;&gt;7</title>
<path fill="none" stroke="black" d="M35.81,-144.76C40.42,-136.28 46.16,-125.71 51.32,-116.2"/>
<polygon fill="black" stroke="black" points="54.54,-117.61 56.23,-107.15 48.39,-114.27 54.54,-117.61"/>
</g>
</g>
</svg>
